<svg width="706" height="368" viewBox="0 0 706 368" fill="none" xmlns="http://www.w3.org/2000/svg">
<path d="M36.001 335.52C23.3024 347.552 11.803 355.627 0.653696 367.125C87.1303 330.958 163.491 274.914 264.447 261.673C262.064 279.286 237.416 278.197 225.929 286.207C259.341 293.394 293.807 269.221 327.219 276.408C320.119 287.514 308.286 292.148 296.8 300.158C325.164 297.414 349.46 295.063 376.126 292.099C387.938 290.172 399.49 287.902 410.888 285.199C436.505 279.206 461.343 270.8 484.934 260.141C493.009 256.383 500.945 252.366 508.899 247.947C571.024 218.025 606.049 284.132 667.492 285.135C617.315 189.154 669.439 93.8243 705.34 4.19742e-09C634.409 27.6693 564.819 69.1978 482.776 66.6994C429.783 68.353 458.743 114.208 457.358 142.144C455.303 163.15 426.276 159.043 409.31 168.623C396.304 171.834 382.82 174.387 369.053 176.744C249.012 186.628 120.691 212.935 38.8777 297.309C54.7608 292.299 68.9592 270.07 73.6743 276.56C95.6057 291.821 51.7475 303.01 47.2034 321.456C40.5159 329.817 36.001 335.52 36.001 335.52Z" fill="black"/>
<path d="M545.771 186.832C533.817 197.8 510.501 210.475 523.317 216.214C545.249 231.474 599.645 201.883 588.53 171.684C584.588 172.044 580.674 172.658 576.823 173.52C565.822 176.683 555.364 181.167 545.771 186.832Z" fill="white"/>
<path d="M512.223 157.218C502.13 166.198 486.239 171.128 486.905 178.01C480.8 199.408 516.6 189.03 528.434 184.412C548.015 175.571 566.952 159.878 569.665 145.675C572.378 131.472 557.184 143.409 548.637 141.307C535.914 145.519 523.709 150.852 512.223 157.218Z" fill="white"/>
<path d="M611.123 181.71C626.07 165.859 636.838 145.162 621.509 148.886C611.276 151.365 611.593 169.052 607.87 178.455C607.218 180.679 608.697 182.137 611.123 181.71Z" fill="white"/>
<path d="M572.67 122.416C592.591 118.649 611.066 108.698 613.016 124.771C595.995 129.891 586.077 124.721 573.987 126.69C571.304 126.598 570.725 124.701 572.67 122.416Z" fill="white"/>
</svg>
