<svg width="190" height="319" viewBox="0 0 190 319" fill="none" xmlns="http://www.w3.org/2000/svg">
<path fill-rule="evenodd" clip-rule="evenodd" d="M39.391 237.892C39.6205 218.491 42.8974 197.812 55.3563 182.975C57.7809 179.966 60.6369 177.282 63.8484 174.993C67.231 172.614 71.0024 170.742 75.0297 169.443C78.5559 168.519 82.1737 167.897 85.8381 167.585C89.5053 167.468 93.1844 167.642 96.8351 168.104C101.065 168.4 105.165 168.838 109.256 169.339C113.346 169.84 117.327 170.471 121.343 171.108L121.345 171.108C129.964 172.474 140.811 170.931 142.323 161.387C142.719 158.367 142.481 155.289 141.621 152.324C140.73 149.045 139.613 145.817 138.275 142.662C121.9 116.124 143.965 102.472 165.059 89.4202C171.132 85.6627 177.124 81.9549 182.095 78.0039C200.634 61.3738 180.828 19.0995 164.85 8.41435C113.219 -22.5967 60.2534 44.02 38.1625 87.3027C35.6176 89.9813 32.9301 92.5559 30.2452 95.1145C21.7868 101.355 14.9672 109.283 10.2735 118.334C8.71512 121.327 7.36439 124.414 6.22927 127.574C3.40885 141.814 1.56743 156.228 0.716045 170.728C0.47361 175.827 0.383779 180.965 0.46845 186.229C2.13801 232.005 14.5454 276.368 32.6282 318.37C37.6095 305.549 37.176 292.375 36.7439 279.246C36.3994 268.779 36.0559 258.341 38.4575 248.132C38.724 244.815 39.0352 241.402 39.391 237.892ZM100.693 89.5641C83.9191 95.0592 53.062 111.368 66.5592 126.552C71.3256 132.588 79.5354 124.205 85.6696 117.94C87.1116 116.468 88.4389 115.112 89.5797 114.089C91.9746 111.489 94.1297 108.705 96.0231 105.766C98.9289 100.699 99.9371 94.3362 100.693 89.5641ZM79.0815 69.8327C90.8957 73.3355 100.775 66.7478 107.141 57.2389C109.927 52.5928 110.582 48.6851 109.22 46.3495C100.663 39.5052 89.7707 46.924 81.9273 52.2663C81.2181 52.7494 80.5339 53.2155 79.8785 53.6525C75.6747 57.8783 72.6906 65.5586 79.0815 69.8327ZM126.086 85.4348C134.453 88.3913 140.633 82.8479 144.452 76.7022C147.333 71.6675 149.253 66.1921 150.127 60.5124C150.167 59.9073 150.213 59.2959 150.259 58.6837C150.748 52.1444 151.242 45.5331 144.707 45.9886C128.941 45.1208 122.72 62.0723 120.704 74.7979C120.311 76.8419 120.618 78.9645 121.582 80.8707C122.547 82.777 124.121 84.3722 126.086 85.4348Z" fill="black"/>
</svg>
