<svg width="462" height="513" viewBox="0 0 462 513" fill="none" xmlns="http://www.w3.org/2000/svg">
<path fill-rule="evenodd" clip-rule="evenodd" d="M68.8034 371.399C82.9612 336.596 103.257 301.443 135.17 282.695C141.466 278.829 148.273 275.823 155.409 273.757C162.903 271.639 170.705 270.683 178.54 270.923C185.248 271.518 191.9 272.715 198.412 274.5C204.79 276.638 210.982 279.309 216.92 282.482C223.971 285.723 230.699 289.139 237.365 292.663C244.03 296.187 250.415 299.873 256.856 303.592L256.862 303.595C270.688 311.578 290.401 315.748 299.768 299.523C302.591 294.336 304.365 288.64 304.993 282.746C305.79 276.269 306.161 269.738 306.104 263.197C296.822 204.9 344.384 194.441 389.851 184.444C402.942 181.565 415.858 178.725 427.195 174.792C470.816 156.711 466.808 67.8659 446.963 38.3808C380.335 -50.5631 242.156 35.5108 173.529 99.3301C167.26 102.525 160.821 105.441 154.397 108.33C135.45 114.153 118.119 124.066 103.642 137.363C98.8427 141.758 94.3344 146.453 90.1436 151.42C75.1997 175.265 61.8134 200.051 50.0646 225.628C46.0316 234.656 42.2319 243.856 38.6426 253.393C9.03305 336.927 -1.14202 424.795 0.100745 512.044C17.7468 492.139 26.3486 468.129 34.9214 444.201C41.7557 425.124 48.5717 406.099 59.9368 389.247C62.7473 383.442 65.7029 377.493 68.8034 371.399ZM279.263 143.466C246.57 142.618 182.032 152.228 194.429 188.229C198.328 202.157 218.368 192.314 233.342 184.959L233.344 184.959L233.345 184.958L233.346 184.957C233.347 184.957 233.348 184.957 233.348 184.956L233.35 184.955C233.569 184.848 233.787 184.741 234.004 184.634C237.268 183.032 240.271 181.569 242.786 180.526C248.742 177.377 254.416 173.743 259.751 169.662C268.334 162.395 274.579 151.578 279.263 143.466ZM256.163 94.0742C273.958 107.953 295.589 102.415 313.263 89.3639C321.342 82.779 325.238 76.1588 324.558 71.079C314.724 53.2667 290.764 59.6532 273.51 64.2522L273.507 64.2532C273.502 64.2545 273.497 64.2559 273.491 64.2573C271.938 64.6712 270.439 65.0708 269.01 65.4367C258.796 70.3561 248.225 82.2801 256.163 94.0742ZM325.781 152.296C338.045 162.982 352.585 156.955 363.501 148.33C372.019 141.107 379.199 132.473 384.729 122.801C385.227 121.737 385.739 120.664 386.252 119.591C391.731 108.124 397.27 96.5306 385.728 93.164C359.281 81.5 336.577 108.052 324.087 129.685C321.962 133.115 320.984 137.136 321.287 141.188C321.591 145.24 323.161 149.122 325.781 152.296Z" fill="black"/>
</svg>
