<svg width="786" height="744" viewBox="0 0 786 744" fill="none" xmlns="http://www.w3.org/2000/svg">
<path fill-rule="evenodd" clip-rule="evenodd" d="M10.5017 99.5306L130.059 6.35628C143.666 -4.26677 166.209 0.593756 180.973 17.455L296.21 148.943C300.512 153.87 305.608 157.909 311.156 160.788C316.703 163.667 322.574 165.32 328.374 165.635L358.455 166.908C386.395 169.884 423.83 153.939 440.486 179.833C457.102 205.532 472.628 231.914 487.006 258.879C492.188 268.684 497.346 279.033 502.578 290.555C506.366 299.304 510.437 308.969 514.68 319.378C518.922 329.787 522.944 341.071 526.953 354.03C535.948 382.94 543.353 412.138 549.124 441.457C551.257 451.921 552.995 462.355 555.071 473.792C556.397 483.757 558.356 493.723 560.936 503.617C563.448 513.336 566.466 522.98 569.976 532.499C573.406 542.543 577.764 552.336 582.979 561.718C588.038 570.792 593.761 579.495 600.086 587.729C647.65 660.774 730.83 668.283 784.885 731.134C786.735 734.011 781.357 741.538 778.948 743.087C701.146 728.052 626.871 702.613 569.585 643.265C562.255 635.858 555.217 628.183 548.471 620.238C541.676 612.162 535.18 603.812 528.924 595.146C523.372 586.514 518.085 577.713 512.943 568.818C497.492 542.149 483.629 514.825 470.367 488.7C466.301 480.048 462.462 471.697 458.516 463.497C454.57 455.297 451.013 447.702 447.061 440.075C442.702 431.426 437.839 423.016 432.505 414.904C427.187 406.839 421.222 399.232 414.695 392.193C407.816 384.407 399.794 377.907 391.075 373.056C382.504 368.33 373.453 365.183 364.353 363.766C355.955 365.41 347.292 366.133 338.488 365.922L307.26 365.672C298.53 365.569 289.61 362.346 281.873 356.498L20.7007 160.613C-1.668 143.844 -6.76174 112.994 10.5017 99.5306ZM137.989 210.449C136.105 210.583 134.128 209.97 132.417 208.719C130.707 207.469 129.376 205.665 128.665 203.634C128.336 202.686 128.192 201.706 128.243 200.76C128.294 199.813 128.538 198.923 128.959 198.15C129.381 197.377 129.969 196.739 130.684 196.28C131.399 195.822 132.224 195.552 133.102 195.491L151.91 193.644L145.199 173.149C144.84 172.202 144.672 171.214 144.707 170.257C144.743 169.3 144.981 168.399 145.404 167.62C145.827 166.84 146.425 166.202 147.153 165.753C147.882 165.303 148.722 165.053 149.613 165.022C151.492 164.876 153.467 165.483 155.176 166.729C156.885 167.976 158.214 169.779 158.918 171.809L165.628 192.304L184.436 190.456C186.315 190.31 188.291 190.916 190 192.163C191.709 193.41 193.037 195.213 193.741 197.243C194.07 198.19 194.214 199.171 194.164 200.117C194.114 201.064 193.871 201.955 193.452 202.73C193.033 203.504 192.447 204.145 191.735 204.608C191.022 205.071 190.2 205.346 189.323 205.413L170.515 207.262L177.226 227.757C177.557 228.701 177.703 229.679 177.655 230.624C177.607 231.569 177.365 232.458 176.945 233.23C176.526 234.002 175.939 234.639 175.226 235.097C174.513 235.555 173.689 235.823 172.812 235.883C170.933 236.036 168.955 235.432 167.244 234.184C165.534 232.937 164.206 231.129 163.508 229.097L156.796 208.601L137.989 210.449ZM257.748 192.313L257.797 192.93L262.14 247.653C262.382 249.721 263.314 251.743 264.761 253.339C266.207 254.934 268.068 255.991 269.992 256.311C270.894 256.516 271.796 256.516 272.638 256.311C273.179 256.18 273.687 255.965 274.148 255.675C274.404 255.513 274.646 255.329 274.871 255.122C275.502 254.543 275.987 253.804 276.294 252.955C276.601 252.105 276.724 251.165 276.653 250.196L272.26 194.856C272.018 192.788 271.086 190.766 269.639 189.171C268.193 187.575 266.332 186.518 264.409 186.198C263.506 185.993 262.604 185.993 261.762 186.198C261.183 186.339 260.642 186.575 260.156 186.897C259.935 187.043 259.726 187.207 259.529 187.387C258.898 187.966 258.413 188.705 258.106 189.554C257.799 190.404 257.677 191.345 257.748 192.313ZM179.8 133.361C177.921 133.506 175.946 132.9 174.237 131.654C172.528 130.407 171.199 128.603 170.495 126.574C170.167 125.626 170.023 124.646 170.073 123.699C170.123 122.753 170.366 121.862 170.785 121.087C171.199 120.322 171.775 119.687 172.476 119.226C172.485 119.22 172.493 119.214 172.502 119.209C173.214 118.746 174.037 118.471 174.914 118.403L193.628 116.595L193.741 116.584L187.03 96.0889C186.694 95.1437 186.543 94.1638 186.589 93.2166C186.634 92.2693 186.874 91.3774 187.291 90.6021C187.701 89.8411 188.273 89.2102 188.969 88.7515C188.982 88.743 188.995 88.7345 189.008 88.7261C189.722 88.2654 190.546 87.9952 191.424 87.9338C193.303 87.7882 195.278 88.3942 196.988 89.6408C198.697 90.8874 200.025 92.6911 200.729 94.7206L207.44 115.216L226.248 113.368C228.132 113.234 230.109 113.847 231.819 115.098C233.53 116.348 234.861 118.153 235.572 120.184C235.895 121.13 236.035 122.108 235.982 123.053C235.929 123.997 235.684 124.885 235.263 125.657C234.843 126.428 234.256 127.066 233.544 127.526C233.524 127.539 233.504 127.552 233.484 127.564C232.786 128.001 231.986 128.261 231.134 128.325L212.326 130.173L212.343 130.224L219.037 150.669C219.368 151.613 219.514 152.591 219.466 153.536C219.419 154.481 219.178 155.371 218.761 156.145C218.344 156.919 217.76 157.559 217.05 158.021C217.025 158.037 217.001 158.053 216.976 158.068C216.283 158.502 215.488 158.759 214.642 158.824C212.758 158.972 210.776 158.364 209.062 157.111C207.348 155.858 206.019 154.046 205.319 152.008L198.608 131.513L179.8 133.361Z" fill="black"/>
<path fill-rule="evenodd" clip-rule="evenodd" d="M174.141 131.716C175.85 132.962 177.825 133.568 179.704 133.423L198.512 131.575L205.223 152.07C205.923 154.108 207.252 155.92 208.966 157.173C210.679 158.425 212.662 159.034 214.546 158.886C215.422 158.819 216.243 158.545 216.953 158.083C216.961 158.078 216.969 158.073 216.976 158.068C216.283 158.502 215.488 158.759 214.642 158.824C212.758 158.972 210.776 158.364 209.062 157.111C207.348 155.858 206.019 154.046 205.319 152.008L198.608 131.513L179.8 133.361C177.921 133.506 175.946 132.9 174.237 131.654C172.528 130.407 171.199 128.603 170.495 126.574C170.167 125.626 170.023 124.646 170.073 123.699C170.123 122.753 170.366 121.862 170.785 121.087C171.199 120.322 171.775 119.687 172.476 119.226C172.452 119.24 172.429 119.255 172.405 119.271C171.693 119.734 171.107 120.374 170.688 121.149C170.269 121.924 170.027 122.815 169.977 123.761C169.927 124.708 170.071 125.688 170.399 126.636C171.103 128.665 172.431 130.469 174.141 131.716ZM193.628 116.595L193.741 116.584L187.03 96.0889C186.694 95.1437 186.543 94.1638 186.589 93.2166C186.634 92.2693 186.874 91.3774 187.291 90.6021C187.701 89.8411 188.273 89.2102 188.969 88.7515C188.95 88.7636 188.931 88.7757 188.912 88.788C188.199 89.2487 187.613 89.8888 187.195 90.664C186.777 91.4393 186.537 92.3312 186.492 93.2785C186.447 94.2258 186.597 95.2056 186.933 96.1508L193.628 116.595ZM212.343 130.224L231.038 128.387C231.914 128.321 232.735 128.048 233.448 127.588C233.46 127.58 233.472 127.572 233.484 127.564C232.786 128.001 231.986 128.261 231.134 128.325L212.326 130.173L212.343 130.224Z" fill="black"/>
<path fill-rule="evenodd" clip-rule="evenodd" d="M262.044 247.715L257.651 192.376L257.797 192.93L262.14 247.653C262.382 249.721 263.314 251.743 264.761 253.339C266.207 254.934 268.068 255.991 269.992 256.311C270.894 256.516 271.796 256.516 272.638 256.311C273.179 256.18 273.687 255.965 274.148 255.675C273.662 255.997 273.121 256.233 272.542 256.374C271.7 256.578 270.798 256.578 269.895 256.373C267.972 256.053 266.111 254.996 264.665 253.401C263.218 251.805 262.286 249.783 262.044 247.715Z" fill="black"/>
</svg>
