<svg width="706" height="368" viewBox="0 0 706 368" fill="none" xmlns="http://www.w3.org/2000/svg">
<path fill-rule="evenodd" clip-rule="evenodd" d="M376.126 292.099C387.938 290.172 399.49 287.902 410.887 285.199C436.505 279.206 461.343 270.8 484.934 260.141C493.009 256.383 500.945 252.366 508.899 247.947C545.05 230.535 572.024 245.641 600.368 261.512C620.732 272.916 641.803 284.716 667.492 285.134C623.944 201.835 657.452 119.024 690.534 37.2635C695.57 24.8174 700.597 12.3956 705.34 0C689.307 6.25417 673.343 13.2165 657.288 20.2183C602.313 44.1936 546.274 68.6331 482.776 66.6994C443.978 67.91 449.108 92.8135 454.097 117.031C455.922 125.892 457.729 134.661 457.358 142.144C456.011 155.913 443.075 158.892 429.544 162.009C422.432 163.647 415.155 165.323 409.309 168.624C396.304 171.834 382.82 174.387 369.053 176.744C249.012 186.628 120.691 212.935 38.8777 297.309C46.4764 294.912 53.6895 288.574 59.6631 283.325C66.1756 277.603 71.2149 273.175 73.6742 276.56C86.6704 285.603 76.5641 293.217 65.2264 301.758C57.4315 307.63 49.0546 313.941 47.2033 321.456C40.5159 329.817 36.001 335.52 36.001 335.52C30.3904 340.836 25.014 345.38 19.7985 349.787L19.7975 349.788C13.2087 355.356 6.87663 360.708 0.653636 367.125C27.5883 355.86 53.5416 342.667 79.5623 329.439C137.084 300.198 194.935 270.79 264.447 261.673C262.873 273.302 251.594 276.778 240.806 280.103C235.254 281.814 229.832 283.486 225.929 286.207C242.635 289.8 259.605 285.554 276.574 281.307C293.543 277.061 310.513 272.814 327.219 276.408C322.085 284.438 314.477 289.085 306.315 294.07C303.189 295.98 299.981 297.939 296.8 300.158L296.806 300.157C325.167 297.413 349.462 295.063 376.126 292.099ZM588.53 171.684C599.645 201.883 545.249 231.474 523.317 216.214C513.732 211.922 524.355 203.751 535.322 195.316C539.02 192.472 542.756 189.598 545.77 186.832C555.364 181.167 565.822 176.683 576.823 173.52C580.674 172.658 584.588 172.044 588.53 171.684ZM528.434 184.412C516.6 189.03 480.8 199.408 486.905 178.01C486.497 173.796 492.297 170.314 499.172 166.186L499.173 166.185C503.526 163.572 508.31 160.699 512.223 157.218C523.709 150.852 535.914 145.519 548.637 141.307C551.76 142.075 555.77 140.969 559.47 139.948C565.896 138.176 571.387 136.661 569.665 145.675C566.952 159.878 548.015 175.571 528.434 184.412ZM621.509 148.886C636.838 145.162 626.07 165.859 611.123 181.71C608.697 182.137 607.218 180.679 607.87 178.455C608.973 175.669 609.721 172.156 610.495 168.527C612.331 159.906 614.308 150.63 621.509 148.886ZM572.67 122.416C570.725 124.701 571.304 126.598 573.987 126.69C578.853 125.898 583.366 126.261 588.133 126.645C595.21 127.216 602.845 127.831 613.016 124.771C611.52 112.442 600.3 115.425 586.163 119.185C581.87 120.326 577.309 121.539 572.67 122.416Z" fill="black"/>
</svg>
