<svg width="342" height="386" viewBox="0 0 342 386" fill="none" xmlns="http://www.w3.org/2000/svg">
<path d="M11.5942 359.081C7.85692 368.977 3.72869 376.403 0.693665 385.6C38.2139 343.115 64.9879 292.482 116.433 258.655C119.781 268.868 106.081 274.775 101.943 282.163C122.02 277.263 134.4 255.02 154.477 250.121C153.542 258.037 148.325 263.678 144.187 271.066C158.898 262.093 171.499 254.407 185.228 245.763C191.148 241.599 196.836 237.318 202.325 232.841C214.685 222.825 225.984 211.701 236.011 199.68C239.414 195.506 242.673 191.227 245.836 186.725C271.752 154.06 308.243 180.798 341.943 165.141C289.329 126.143 292.554 60.523 287.349 -7.12965e-09C256.048 33.7609 229.13 74.71 183.826 94.9849C155.425 109.859 183.276 127.175 189.889 142.742C194.31 154.714 177.432 160.134 170.726 169.821C164.495 174.998 157.831 179.943 150.961 184.855C88.2453 221.889 25.3542 270.042 3.08341 337.529C10.4054 330.614 12.27 314.774 16.5472 317.062C32.5056 319.583 11.5901 337.237 13.9815 348.473C12.5473 354.787 11.5942 359.081 11.5942 359.081Z" fill="black"/>
<path d="M249.784 143.745C246.172 152.866 236.826 165.912 245.314 165.655C261.272 168.175 283.07 137.729 269.058 124.227C267.008 125.462 265.04 126.828 263.172 128.313C258.02 132.935 253.511 138.133 249.784 143.745Z" fill="white"/>
<path d="M223.72 136.477C220.595 144.025 213.248 150.898 215.425 154.467C217.746 167.721 234.491 152.633 239.712 147C248.036 137.026 254.203 123.493 251.934 115.048C249.665 106.604 244.545 117.107 239.339 118.217C233.527 123.863 228.291 129.984 223.72 136.477Z" fill="white"/>
<path d="M283.996 123.725C287.95 111.158 288.352 97.056 280.992 103.125C276.078 107.172 280.914 116.713 281.368 122.812C281.6 124.194 282.788 124.597 283.996 123.725Z" fill="white"/>
<path d="M247.436 101.599C257.283 94.2959 264.712 84.0095 270.012 92.2415C262.1 99.5161 255.339 99.3177 249.28 103.578C247.795 104.235 246.98 103.356 247.436 101.599Z" fill="white"/>
</svg>
