<svg width="2745" height="340" viewBox="0 0 2745 340" fill="none" xmlns="http://www.w3.org/2000/svg">
<g opacity="0.5">
<path d="M1452.56 264.677C1458.9 266.673 1463.57 268.984 1469.49 270.57C1443.58 248.811 1411.6 233.897 1392.28 203.326C1399.27 200.962 1402.35 209.196 1407 211.515C1404.97 199.334 1390.96 192.402 1388.94 180.221C1394.13 180.556 1397.56 183.589 1402.21 185.908C1397.15 177.145 1392.82 169.638 1387.92 161.468C1385.51 157.959 1383.02 154.595 1380.38 151.359C1374.49 144.071 1367.79 137.468 1360.42 131.673C1357.86 129.71 1355.22 127.837 1352.42 126.03C1332.32 111.102 1352.29 87.8855 1343.95 67.6633C1314.86 101.15 1271.49 101.149 1231 106.171C1251.5 124.375 1277.04 139.669 1287.74 166.878C1295.88 183.87 1309.08 166.245 1319.81 161.714C1328.03 158.638 1330.6 168.839 1336.62 172.665C1339.68 176.335 1342.55 180.279 1345.4 184.349C1366.16 221.745 1394.29 258.913 1437.73 270.553C1433.59 266.266 1423.18 265.598 1424.96 262.903C1427.61 253.027 1438.05 265.338 1445.66 263.531C1449.76 264.221 1452.56 264.677 1452.56 264.677Z" fill="white"/>
<path d="M1324.13 124.903C1329.97 126.846 1338.06 132.191 1338.4 126.987C1341.05 117.111 1322.17 104.644 1312.35 113.656C1313.04 114.878 1313.83 116.045 1314.7 117.147C1317.46 120.172 1320.63 122.784 1324.13 124.903Z" fill="black"/>
<path d="M1317.72 141.128C1322.54 142.819 1326.65 147.124 1329.15 145.679C1338.09 143.854 1329.1 134.026 1325.68 130.99C1319.56 126.179 1310.96 122.8 1305.21 124.449C1299.47 126.097 1306.13 128.924 1306.55 132.087C1309.94 135.486 1313.69 138.517 1317.72 141.128Z" fill="black"/>
<path d="M1312.93 104.498C1304.83 102.449 1295.49 102.627 1299.07 106.964C1301.46 109.86 1308.08 106.602 1312.16 106.139C1313.09 105.955 1313.43 105.213 1312.93 104.498Z" fill="black"/>
<path d="M1296.01 127.617C1291.76 121.79 1285.39 117.538 1291.18 114.035C1295.52 118.674 1294.98 122.832 1297.44 126.425C1297.78 127.316 1297.15 127.844 1296.01 127.617Z" fill="black"/>
</g>
<g opacity="0.5">
<path fill-rule="evenodd" clip-rule="evenodd" d="M676.984 112.378L706.863 67.9094C710.261 62.8421 718.367 61.9893 725.184 66.0241L778.377 97.4771C780.365 98.6575 782.521 99.452 784.702 99.8072C786.882 100.162 789.036 100.07 791.018 99.5369L801.26 96.6484C810.971 94.5678 821.785 85.0866 830.233 91.9461C838.645 98.7446 846.767 105.893 854.568 113.363C857.389 116.084 860.262 118.991 863.289 122.284C865.526 124.804 867.958 127.601 870.531 130.629C873.103 133.657 875.697 137.003 878.472 140.913C884.68 149.63 890.385 158.619 895.555 167.828C897.425 171.108 899.158 174.42 901.116 178.032C902.66 181.232 904.417 184.363 906.374 187.401C908.289 190.388 910.365 193.294 912.593 196.103C914.852 199.098 917.396 201.907 920.181 204.482C922.88 206.972 925.761 209.264 928.793 211.332C952.818 230.618 981.579 223.97 1006.66 239.118C1007.6 239.88 1006.62 243.001 1005.98 243.787C978.199 247.314 950.452 246.959 924.672 233.343C921.394 231.664 918.184 229.863 915.043 227.938C911.871 225.975 908.769 223.887 905.713 221.667C902.897 219.38 900.152 217.007 897.444 214.587C889.316 207.334 881.648 199.686 874.315 192.375C871.995 189.918 869.786 187.537 867.557 185.218C865.328 182.899 863.296 180.741 861.128 178.615C858.711 176.191 856.151 173.903 853.465 171.767C850.79 169.645 847.948 167.748 844.981 166.104C841.812 164.247 838.402 162.949 834.939 162.281C831.54 161.638 828.154 161.579 824.941 162.106C822.302 163.585 819.473 164.782 816.493 165.682L805.978 169.04C803.036 169.968 799.685 169.869 796.442 168.758L687.142 131.767C677.782 128.601 672.671 118.803 676.984 112.378ZM732.023 135.573C731.406 135.826 730.674 135.838 729.962 135.607C729.25 135.375 728.604 134.916 728.141 134.312C727.926 134.03 727.77 133.717 727.683 133.394C727.595 133.07 727.579 132.744 727.635 132.438C727.692 132.132 727.819 131.853 728.009 131.62C728.198 131.387 728.445 131.206 728.734 131.089L734.846 128.395L730.333 122.252C730.108 121.974 729.943 121.661 729.849 121.335C729.756 121.01 729.736 120.681 729.792 120.373C729.849 120.065 729.979 119.784 730.174 119.553C730.369 119.322 730.624 119.145 730.919 119.037C731.534 118.781 732.264 118.766 732.976 118.997C733.687 119.227 734.332 119.686 734.792 120.29L739.305 126.433L745.418 123.739C746.032 123.483 746.763 123.469 747.474 123.699C748.185 123.929 748.83 124.389 749.29 124.992C749.505 125.275 749.661 125.588 749.749 125.911C749.837 126.235 749.853 126.561 749.798 126.867C749.743 127.173 749.617 127.453 749.428 127.687C749.24 127.921 748.994 128.104 748.707 128.223L742.595 130.917L747.108 137.06C747.323 137.341 747.48 137.653 747.568 137.976C747.656 138.298 747.673 138.624 747.617 138.929C747.561 139.235 747.435 139.513 747.245 139.746C747.056 139.978 746.809 140.159 746.522 140.276C745.907 140.534 745.177 140.549 744.464 140.319C743.752 140.089 743.107 139.628 742.649 139.022L738.136 132.879L732.023 135.573ZM770.241 116.281L777.817 134.381C778.126 135.049 778.662 135.625 779.324 136.002C779.985 136.378 780.727 136.528 781.408 136.423C781.734 136.393 782.037 136.293 782.297 136.132C782.557 135.97 782.768 135.75 782.916 135.486C783.064 135.222 783.145 134.92 783.154 134.601C783.164 134.282 783.101 133.953 782.971 133.635L775.395 115.535C775.086 114.868 774.55 114.291 773.888 113.915C773.227 113.539 772.485 113.389 771.804 113.494C771.478 113.524 771.175 113.623 770.915 113.785C770.655 113.947 770.444 114.167 770.297 114.431C770.149 114.695 770.067 114.996 770.058 115.315C770.048 115.634 770.111 115.964 770.241 116.281ZM737.567 105.077C736.952 105.333 736.222 105.347 735.51 105.117C734.799 104.886 734.154 104.427 733.694 103.823C733.479 103.541 733.323 103.228 733.235 102.904C733.148 102.581 733.131 102.255 733.186 101.949C733.242 101.642 733.368 101.363 733.556 101.129C733.744 100.895 733.99 100.712 734.277 100.592L740.399 97.9061L735.886 91.7631C735.669 91.4827 735.51 91.1702 735.421 90.8471C735.332 90.524 735.314 90.1981 735.369 89.8917C735.424 89.5853 735.55 89.3058 735.739 89.0724C735.928 88.8391 736.175 88.6574 736.463 88.54C737.078 88.284 737.808 88.2698 738.519 88.5C739.23 88.7302 739.875 89.1895 740.336 89.7934L744.848 95.9363L750.961 93.2425C751.579 92.9896 752.31 92.9779 753.022 93.2092C753.735 93.4406 754.381 93.8998 754.843 94.5035C755.056 94.7858 755.211 95.0988 755.297 95.4217C755.383 95.7447 755.399 96.0699 755.343 96.3754C755.287 96.6809 755.16 96.9596 754.972 97.1927C754.783 97.4259 754.537 97.608 754.25 97.7268L748.138 100.421L752.651 106.564C752.866 106.844 753.023 107.157 753.111 107.479C753.199 107.802 753.217 108.127 753.162 108.433C753.107 108.739 752.982 109.018 752.794 109.252C752.606 109.485 752.361 109.668 752.074 109.787C751.458 110.044 750.725 110.058 750.011 109.827C749.298 109.595 748.652 109.133 748.192 108.526L743.679 102.383L737.567 105.077Z" fill="white"/>
<path d="M777.791 134.413L770.216 116.313C770.085 115.995 770.023 115.666 770.032 115.347C770.042 115.028 770.123 114.726 770.271 114.462C770.419 114.198 770.63 113.978 770.89 113.817C771.15 113.655 771.453 113.556 771.779 113.525C772.46 113.42 773.201 113.57 773.863 113.947C774.525 114.323 775.061 114.899 775.37 115.567L782.945 133.667C783.076 133.984 783.138 134.314 783.129 134.633C783.119 134.952 783.038 135.254 782.89 135.517C782.742 135.781 782.531 136.001 782.271 136.163C782.011 136.325 781.708 136.424 781.382 136.455C780.701 136.559 779.96 136.409 779.298 136.033C778.637 135.657 778.101 135.08 777.791 134.413Z" fill="black"/>
<path d="M732.023 135.573C731.406 135.826 730.674 135.838 729.962 135.607C729.25 135.375 728.604 134.916 728.141 134.312C727.926 134.03 727.77 133.717 727.683 133.394C727.595 133.07 727.579 132.744 727.635 132.438C727.692 132.132 727.819 131.853 728.009 131.62C728.198 131.387 728.445 131.206 728.734 131.089L734.846 128.395L730.333 122.252C730.108 121.974 729.943 121.661 729.849 121.335C729.756 121.01 729.736 120.681 729.792 120.373C729.849 120.065 729.979 119.784 730.174 119.553C730.369 119.322 730.624 119.145 730.919 119.037C731.534 118.781 732.264 118.766 732.976 118.997C733.687 119.227 734.332 119.686 734.792 120.29L739.305 126.433L745.418 123.739C746.032 123.483 746.763 123.469 747.474 123.699C748.185 123.929 748.83 124.389 749.29 124.992C749.505 125.275 749.661 125.588 749.749 125.911C749.837 126.235 749.853 126.561 749.798 126.867C749.743 127.173 749.617 127.453 749.428 127.687C749.24 127.921 748.994 128.104 748.707 128.223L742.595 130.917L747.108 137.06C747.323 137.341 747.48 137.653 747.568 137.976C747.656 138.298 747.673 138.624 747.617 138.929C747.561 139.235 747.435 139.513 747.245 139.746C747.056 139.978 746.809 140.159 746.522 140.276C745.907 140.534 745.177 140.549 744.464 140.319C743.752 140.089 743.107 139.628 742.649 139.022L738.136 132.879L732.023 135.573Z" fill="black"/>
<path d="M737.541 105.108C736.926 105.364 736.196 105.378 735.485 105.148C734.773 104.918 734.128 104.459 733.668 103.855C733.454 103.573 733.297 103.259 733.21 102.936C733.122 102.612 733.105 102.287 733.161 101.98C733.216 101.674 733.342 101.394 733.53 101.16C733.718 100.926 733.964 100.743 734.252 100.624L740.373 97.9375L735.86 91.7945C735.643 91.5141 735.485 91.2016 735.396 90.8785C735.306 90.5554 735.289 90.2295 735.343 89.9231C735.398 89.6167 735.524 89.3372 735.713 89.1038C735.902 88.8705 736.149 88.6888 736.437 88.5714C737.052 88.3154 737.782 88.3012 738.494 88.5314C739.205 88.7616 739.85 89.2209 740.31 89.8248L744.823 95.9677L750.935 93.2739C751.553 93.0211 752.285 93.0093 752.997 93.2406C753.709 93.472 754.355 93.9312 754.818 94.5349C755.031 94.8171 755.185 95.1302 755.272 95.4532C755.358 95.7761 755.374 96.1013 755.317 96.4068C755.261 96.7123 755.135 96.991 754.946 97.2241C754.758 97.4573 754.512 97.6394 754.225 97.7582L748.113 100.452L752.626 106.595C752.841 106.876 752.998 107.188 753.086 107.511C753.174 107.833 753.191 108.159 753.137 108.465C753.082 108.77 752.956 109.05 752.769 109.283C752.581 109.517 752.335 109.699 752.049 109.818C751.432 110.076 750.699 110.09 749.986 109.858C749.272 109.626 748.626 109.164 748.166 108.557L743.654 102.414L737.541 105.108Z" fill="black"/>
</g>
<g opacity="0.5">
<path fill-rule="evenodd" clip-rule="evenodd" d="M1862.31 213.695C1844.36 211.588 1825.53 206.541 1812.99 193.58C1810.44 191.046 1808.23 188.145 1806.42 184.954C1804.54 181.596 1803.17 177.929 1802.36 174.081C1801.84 170.732 1801.61 167.329 1801.68 163.912C1801.93 160.512 1802.44 157.13 1803.22 153.802C1803.91 149.923 1804.71 146.176 1805.57 142.445C1806.43 138.714 1807.4 135.097 1808.37 131.448C1810.47 123.618 1810.09 113.445 1801.4 111.115C1798.64 110.454 1795.77 110.374 1792.94 110.878C1789.81 111.381 1786.71 112.099 1783.66 113.027C1749.97 129.176 1742.23 88.4969 1728.01 66.2227C1714.4 47.469 1673.33 61.6417 1661.89 75.3611C1628.17 120.04 1684.76 175.485 1722.71 200.124C1724.95 202.737 1727.07 205.472 1729.18 208.202C1734.14 216.627 1740.83 223.703 1748.76 228.924C1751.38 230.656 1754.11 232.205 1756.93 233.563C1769.84 237.56 1783.01 240.669 1796.36 242.871C1801.06 243.593 1805.81 244.178 1810.7 244.614C1853.26 247.542 1895.55 240.41 1936.2 227.803C1915.72 217.281 1892.5 222.808 1871.71 215.558C1868.66 214.987 1865.53 214.367 1862.31 213.695Z" fill="white"/>
<path d="M1752.49 155.231C1756.89 161.294 1769.28 173.007 1761.81 177.719C1746.44 188.707 1734.32 158.603 1730.85 142.567C1735.2 143.731 1740.99 145.284 1745.41 148.464C1747.94 150.501 1750.31 152.764 1752.49 155.231Z" fill="black"/>
<path d="M1701.53 133.452C1709.72 140.263 1714.87 150.035 1710.48 160.609C1705.91 166.097 1699.08 162.589 1695.57 158.292C1691.46 150.475 1683.83 138.361 1691.65 130.468C1693.94 129.438 1697.5 130.424 1701.53 133.452Z" fill="black"/>
<path d="M1723.17 100.878C1728.49 105.007 1733.03 111.258 1729.48 118.7C1728.3 120.412 1726.67 121.711 1724.82 122.416C1722.96 123.122 1720.96 123.198 1719.11 122.635C1707.51 119.529 1692.41 112.126 1694.74 97.6431C1694.97 90.9906 1702.22 92.9319 1708.72 94.053C1713.89 95.4155 1718.78 97.7238 1723.17 100.878Z" fill="black"/>
</g>
<path d="M0 8.68737H110.721C202.567 17.3953 312.834 -15.3414 384.183 69.7742C416.614 122.153 358.238 154.89 312.834 161.437C345.265 154.89 377.697 174.532 384.183 194.174C403.642 246.553 358.238 292.384 312.834 318.574C247.971 344.763 176.622 318.573 106.57 326.299L92.235 325.972H78.2895H65.3169H52.7985H41.2529L22.1183 325.579L4.86471 325.252C4.86471 325.252 4.0215 319.948 3.24314 310.979C2.85397 306.461 2.46484 301.092 2.07566 294.938C1.68648 288.783 1.49192 281.843 1.29734 274.379C1.10275 266.915 1.29735 258.796 0.908175 250.285C0.908175 245.963 0.908175 241.642 0.908175 237.19C0.908175 232.738 0.908175 228.155 0.908175 223.506C0.908175 218.857 0.908175 214.209 0.908175 209.429C0.908175 204.65 0.908175 199.87 0.908175 195.09C0.908175 190.311 0.908175 185.4 0.908175 180.555V8.68737H0ZM327.104 95.9636C286.889 -8.79404 150.677 50.1321 67.6521 38.085H40.4096V147.164H90.6784C163.649 141.795 234.998 161.437 306.347 134.593C313.227 130.975 318.879 125.365 322.577 118.482C326.275 111.599 327.852 103.757 327.104 95.9636ZM324.898 241.708C306.347 128.7 144.19 187.626 58.9603 176.234H40.4096V184.811C40.4096 190.18 40.4096 197.906 40.4096 206.352C40.4096 210.673 40.4096 215.322 40.4096 220.036C40.4096 224.75 40.4096 229.66 40.4096 234.571C40.4096 239.481 40.4096 244.327 40.4096 249.106C40.4096 253.886 40.4096 258.534 40.7339 262.921C40.7339 271.694 41.1232 279.42 41.2529 284.92C41.3826 290.42 41.2529 293.694 41.2529 293.694H59.9981H80.1706H92.0404C163.649 279.289 247.971 331.668 312.25 265.344C317.928 258.356 322.221 250.332 324.898 241.708ZM637.861 11.5028C753.901 37.0375 734.442 233.458 805.791 325.121C792.819 325.121 773.36 331.668 766.874 325.121C747.415 298.931 740.929 240.005 727.956 240.005C643.634 207.269 565.799 240.005 500.936 331.668C494.45 338.216 474.991 331.668 462.018 331.668C539.854 253.1 630.662 174.532 636.499 48.4953C637.537 25.8414 637.861 11.5028 637.861 11.5028ZM612.954 201.376C650.12 200.721 682.552 200.721 721.47 200.721C721.47 141.795 689.038 89.4162 663.093 37.0374C656.607 89.4162 643.634 141.795 623.202 184.353C617.105 194.829 612.954 201.376 612.954 201.376ZM920.08 8.42552C935.517 10.848 954.976 4.30066 954.976 10.848C974.435 50.1321 961.462 122.153 980.921 128.7C1078.22 187.626 1182 89.4162 1253.35 10.848C1272.8 -8.79405 1292.26 17.3954 1311.72 4.30066C1266.32 63.2268 1214.43 115.606 1143.08 148.342C1220.91 181.079 1298.75 233.458 1324.69 318.574C1305.24 325.121 1279.29 318.574 1272.8 305.479C1194.97 213.816 1078.22 128.7 980.921 187.626C948.49 207.269 974.435 344.763 942.003 312.026C890.113 266.195 929.031 161.437 922.545 75.4703C920.988 36.3826 920.08 8.42552 920.08 8.42552ZM1460.32 321.389C1571.17 220.363 1454.42 89.4162 1376.58 4.30066C1467.39 10.848 1493.34 135.248 1538.74 200.721C1564.69 135.248 1610.09 69.7742 1645.96 8.68737H1686.63C1686.63 8.68737 1675.21 25.7105 1657.96 51.769C1603.6 141.795 1551.71 233.458 1492.62 321.651L1460.32 321.389ZM1914.36 320.865C1960.35 292.384 2005.75 259.647 2051.16 233.458C1960.35 154.89 1850.08 102.511 1765.76 10.848C1882.51 30.4901 1979.81 174.532 2096.56 181.079C2148.45 187.626 2148.45 76.3215 2135.48 10.848C2148.45 10.848 2167.91 4.30066 2167.91 10.848C2193.86 69.7742 2206.83 135.248 2167.91 187.626C2116.02 253.1 2044.67 279.289 1975.59 320.603L1914.36 320.865ZM2460.77 275.754C2440.34 240.005 2427.36 207.269 2406.54 172.568C2396.81 155.675 2387.08 139.111 2376.58 123.135C2366.07 107.16 2355.69 91.8387 2344.79 77.3036C2335.97 65.7148 2326.83 54.4534 2317.1 43.5193C2324.55 57.5741 2331.05 72.1205 2336.55 87.0592C2368.99 167.984 2368.99 259.647 2330.07 338.216C2323.58 344.763 2304.12 331.668 2304.12 325.121C2336.55 259.647 2349.53 181.079 2319.95 114.165C2314.05 96.3564 2307.43 78.6786 2300.49 61.3936C2293.55 44.1086 2285.77 27.2164 2278.18 10.848C2294.46 11.8221 2310.3 16.5479 2324.49 24.6629C2338.49 32.9966 2351.07 43.5657 2361.72 55.9593C2373.27 70.8217 2383.97 86.5354 2394.15 102.576C2427.36 148.342 2446.82 207.269 2492.23 246.553C2550.6 181.079 2557.09 89.4162 2589.52 10.848C2596.01 -2.2467 2621.95 -2.2467 2634.92 4.30066C2712.76 89.4162 2790.59 220.363 2712.76 331.668C2706.27 331.668 2693.3 325.121 2680.33 325.121C2719.25 220.363 2660.87 122.153 2615.47 37.0374C2615.47 128.7 2570.06 213.816 2511.1 276.016L2460.77 275.754Z" fill="white"/>
</svg>
